<svg width="30" height="30" viewBox="0 0 30 30" fill="none" xmlns="http://www.w3.org/2000/svg">
<path d="M10 21.25C9.50555 21.25 9.0222 21.3966 8.61108 21.6713C8.19995 21.946 7.87952 22.3365 7.6903 22.7933C7.50108 23.2501 7.45157 23.7528 7.54804 24.2377C7.6445 24.7227 7.8826 25.1681 8.23223 25.5178C8.58187 25.8674 9.02732 26.1055 9.51228 26.202C9.99723 26.2984 10.4999 26.2489 10.9567 26.0597C11.4135 25.8705 11.804 25.55 12.0787 25.1389C12.3534 24.7278 12.5 24.2445 12.5 23.75C12.4993 23.0872 12.2357 22.4517 11.767 21.983C11.2983 21.5143 10.6628 21.2507 10 21.25ZM10 25C9.75277 25 9.5111 24.9267 9.30554 24.7893C9.09998 24.652 8.93976 24.4568 8.84515 24.2284C8.75054 23.9999 8.72579 23.7486 8.77402 23.5061C8.82225 23.2637 8.9413 23.0409 9.11612 22.8661C9.29093 22.6913 9.51366 22.5722 9.75614 22.524C9.99861 22.4758 10.2499 22.5005 10.4784 22.5952C10.7068 22.6898 10.902 22.85 11.0393 23.0555C11.1767 23.2611 11.25 23.5028 11.25 23.75C11.2496 24.0814 11.1177 24.3991 10.8834 24.6334C10.6491 24.8677 10.3314 24.9996 10 25Z" fill="black"/>
<path d="M22.5 21.25C22.0055 21.25 21.5222 21.3966 21.1111 21.6713C20.7 21.946 20.3795 22.3365 20.1903 22.7933C20.0011 23.2501 19.9516 23.7528 20.048 24.2377C20.1445 24.7227 20.3826 25.1681 20.7322 25.5178C21.0819 25.8674 21.5273 26.1055 22.0123 26.202C22.4972 26.2984 22.9999 26.2489 23.4567 26.0597C23.9135 25.8705 24.304 25.55 24.5787 25.1389C24.8534 24.7278 25 24.2445 25 23.75C24.9993 23.0872 24.7357 22.4517 24.267 21.983C23.7983 21.5143 23.1628 21.2507 22.5 21.25ZM22.5 25C22.2528 25 22.0111 24.9267 21.8055 24.7893C21.6 24.652 21.4398 24.4568 21.3452 24.2284C21.2505 23.9999 21.2258 23.7486 21.274 23.5061C21.3223 23.2637 21.4413 23.0409 21.6161 22.8661C21.7909 22.6913 22.0137 22.5722 22.2561 22.524C22.4986 22.4758 22.7499 22.5005 22.9784 22.5952C23.2068 22.6898 23.402 22.85 23.5393 23.0555C23.6767 23.2611 23.75 23.5028 23.75 23.75C23.7496 24.0814 23.6177 24.3991 23.3834 24.6334C23.1491 24.8677 22.8314 24.9996 22.5 25Z" fill="black"/>
<path d="M18.75 11.875C18.75 12.0408 18.6842 12.1997 18.5669 12.3169C18.4497 12.4342 18.2908 12.5 18.125 12.5H16.25V14.375C16.25 14.5408 16.1842 14.6997 16.0669 14.8169C15.9497 14.9342 15.7908 15 15.625 15C15.4592 15 15.3003 14.9342 15.1831 14.8169C15.0658 14.6997 15 14.5408 15 14.375V12.5H13.125C12.9592 12.5 12.8003 12.4342 12.6831 12.3169C12.5658 12.1997 12.5 12.0408 12.5 11.875C12.5 11.7092 12.5658 11.5503 12.6831 11.4331C12.8003 11.3158 12.9592 11.25 13.125 11.25H15V9.375C15 9.20924 15.0658 9.05027 15.1831 8.93306C15.3003 8.81585 15.4592 8.75 15.625 8.75C15.7908 8.75 15.9497 8.81585 16.0669 8.93306C16.1842 9.05027 16.25 9.20924 16.25 9.375V11.25H18.125C18.2908 11.25 18.4497 11.3158 18.5669 11.4331C18.6842 11.5503 18.75 11.7092 18.75 11.875Z" fill="black"/>
<path d="M27.1881 9.71987L26.4935 15.9699C26.4092 16.7345 26.0456 17.4411 25.4724 17.9541C24.8992 18.4672 24.1568 18.7506 23.3875 18.75H10.625C9.7965 18.749 9.00222 18.4194 8.41639 17.8336C7.83055 17.2478 7.50099 16.4535 7.5 15.625V9.375C7.49944 8.87789 7.30171 8.40131 6.9502 8.0498C6.59869 7.69829 6.12211 7.50056 5.625 7.5H3.125C2.95924 7.5 2.80027 7.43415 2.68306 7.31694C2.56585 7.19973 2.5 7.04076 2.5 6.875C2.5 6.70924 2.56585 6.55027 2.68306 6.43306C2.80027 6.31585 2.95924 6.25 3.125 6.25H5.625C6.4535 6.25099 7.24778 6.58055 7.83361 7.16639C8.41945 7.75222 8.74901 8.5465 8.75 9.375V15.625C8.75056 16.1221 8.94829 16.5987 9.2998 16.9502C9.6513 17.3017 10.1279 17.4994 10.625 17.5H23.3875C23.849 17.5003 24.2945 17.3303 24.6383 17.0224C24.9822 16.7146 25.2003 16.2906 25.2509 15.8319L25.9454 9.58188C25.9743 9.31982 25.9478 9.0546 25.8674 8.80348C25.7871 8.55236 25.6548 8.32097 25.4791 8.12437C25.3042 7.92679 25.089 7.76886 24.848 7.66118C24.6071 7.5535 24.3459 7.49855 24.082 7.5H20.625C20.4592 7.5 20.3003 7.43415 20.1831 7.31694C20.0658 7.19973 20 7.04076 20 6.875C20 6.70924 20.0658 6.55027 20.1831 6.43306C20.3003 6.31585 20.4592 6.25 20.625 6.25H24.082C24.5214 6.25013 24.9559 6.34291 25.3571 6.52229C25.7583 6.70167 26.1171 6.96361 26.4102 7.29104C26.7033 7.61847 26.9241 8.00401 27.0581 8.42252C27.1922 8.84103 27.2365 9.28309 27.1881 9.71987Z" fill="black"/>
</svg>
