<svg width="18" height="18" viewBox="0 0 18 18" fill="none" xmlns="http://www.w3.org/2000/svg">
<g clip-path="url(#clip0_4_23)">
<path fill-rule="evenodd" clip-rule="evenodd" d="M13.5002 16.2C13.0043 16.2 12.6002 15.7959 12.6002 15.3C12.6002 14.8041 13.0043 14.4 13.5002 14.4C13.9961 14.4 14.4002 14.8041 14.4002 15.3C14.4002 15.7959 13.9961 16.2 13.5002 16.2ZM3.60018 10.8V6.3C3.60018 5.8032 4.00338 5.4 4.50018 5.4H12.6002V10.8H3.60018ZM2.70018 16.2C2.20428 16.2 1.80018 15.7959 1.80018 15.3C1.80018 14.8041 2.20428 14.4 2.70018 14.4C3.19608 14.4 3.60018 14.8041 3.60018 15.3C3.60018 15.7959 3.19608 16.2 2.70018 16.2ZM3.60018 3.6C2.60568 3.6 1.80018 4.4055 1.80018 5.4V12.7657C0.596876 13.1932 -0.219424 14.437 0.0523761 15.8401C0.258476 16.8994 1.13148 17.7606 2.19258 17.9541C3.90708 18.2655 5.40018 16.9569 5.40018 15.3C5.40018 14.1264 4.64688 13.1374 3.60018 12.7657V12.6H12.6002V12.7657C11.3969 13.1932 10.5806 14.437 10.8524 15.8401C11.0585 16.8994 11.9315 17.7606 12.9926 17.9541C14.7071 18.2655 16.2002 16.9569 16.2002 15.3C16.2002 14.1264 15.4469 13.1374 14.4002 12.7657V2.7C14.4002 2.2032 14.8034 1.8 15.3002 1.8H17.1002C17.597 1.8 18.0002 1.3968 18.0002 0.9C18.0002 0.4032 17.597 0 17.1002 0H14.4002C13.4057 0 12.6002 0.8055 12.6002 1.8V3.6H3.60018Z" fill="black"/>
</g>
<defs>
<clipPath id="clip0_4_23">
<rect width="18" height="18" fill="white"/>
</clipPath>
</defs>
</svg>
