<svg width="70" height="76" viewBox="0 0 70 76" fill="none" xmlns="http://www.w3.org/2000/svg">
<path d="M7.41837 76H62.5738C63.4881 76 64.3649 75.636 65.0114 74.9882C65.6578 74.3403 66.021 73.4617 66.021 72.5455V30.2342C66.3828 29.9063 66.728 29.5604 67.0552 29.1978C68.3593 27.5339 69.2646 25.5922 69.7015 23.5222C70.1384 21.4523 70.0952 19.3095 69.5751 17.2589L65.9176 2.61855C65.7315 1.87087 65.3013 1.20701 64.6955 0.732535C64.0896 0.258059 63.3428 0.000212879 62.5738 0H7.41837C6.64943 0.000212879 5.90263 0.258059 5.29674 0.732535C4.69085 1.20701 4.26066 1.87087 4.07457 2.61855L0.427418 17.252C-0.0940668 19.3018 -0.138992 21.4441 0.296106 23.5141C0.731203 25.584 1.63471 27.5261 2.93699 29.1909C3.26422 29.5535 3.60937 29.8994 3.97116 30.2273V72.5455C3.97116 73.4617 4.33434 74.3403 4.98082 74.9882C5.6273 75.636 6.50411 76 7.41837 76ZM38.4433 69.0909H31.5489V51.8182H38.4433V69.0909ZM59.8815 6.90909L62.8806 18.9275C63.1384 19.961 63.1577 21.0398 62.9371 22.0819C62.7164 23.124 62.2616 24.102 61.6073 24.9416C60.9529 25.7812 60.1162 26.4602 59.1607 26.9272C58.2052 27.3941 57.1561 27.6367 56.0931 27.6364C54.3428 27.6252 52.6595 26.9607 51.3719 25.7726C50.0843 24.5845 49.2849 22.958 49.1297 21.2109L47.9369 6.90909H59.8815ZM28.9738 6.90909H41.0184L42.1077 20.0364C42.1893 21.0032 42.0697 21.9766 41.7564 22.8947C41.4432 23.8128 40.9431 24.6558 40.2879 25.3702C39.6327 26.0846 38.8366 26.6549 37.95 27.045C37.0634 27.4351 36.1057 27.6365 35.1374 27.6364H34.8548C33.8865 27.6365 32.9288 27.4351 32.0422 27.045C31.1556 26.6549 30.3595 26.0846 29.7043 25.3702C29.0491 24.6558 28.549 23.8128 28.2357 22.8947C27.9225 21.9766 27.8029 21.0032 27.8845 20.0364L28.9738 6.90909ZM24.6338 30.0545C25.9362 31.4691 27.5166 32.5983 29.2756 33.3712C31.0346 34.144 32.9341 34.5438 34.8548 34.5455H35.1374C37.0581 34.5438 38.9576 34.144 40.7166 33.3712C42.4756 32.5983 44.056 31.4691 45.3584 30.0545C45.4653 29.9371 45.5377 29.792 45.6411 29.6745C47.2557 31.5994 49.369 33.0405 51.7484 33.8389C54.1278 34.6374 56.6809 34.7624 59.1266 34.2V69.0909H45.3377V48.3636C45.3377 47.4474 44.9746 46.5688 44.3281 45.9209C43.6816 45.2731 42.8048 44.9091 41.8905 44.9091H28.1017C27.1874 44.9091 26.3106 45.2731 25.6641 45.9209C25.0176 46.5688 24.6544 47.4474 24.6544 48.3636V69.0909H10.8656V34.2C13.3116 34.762 15.8649 34.6365 18.2443 33.8374C20.6237 33.0383 22.7369 31.5966 24.3511 29.6711C24.4545 29.7885 24.5269 29.9336 24.6338 30.0545ZM7.11157 18.9275L10.1106 6.90909H22.0552L20.8625 21.2109C20.7073 22.958 19.9079 24.5845 18.6203 25.7726C17.3327 26.9607 15.6494 27.6252 13.8991 27.6364C12.8361 27.6367 11.787 27.3941 10.8315 26.9272C9.87597 26.4602 9.03925 25.7812 8.3849 24.9416C7.73055 24.102 7.27578 23.124 7.05514 22.0819C6.8345 21.0398 6.8538 19.961 7.11157 18.9275Z" fill="black"/>
</svg>
