<svg width="18" height="18" viewBox="0 0 18 18" fill="none" xmlns="http://www.w3.org/2000/svg">
<path d="M6.73992 13.5146C8.36185 13.5146 9.89377 12.9398 11.1129 11.8941L17.0392 17.8346C17.1489 17.9449 17.2935 18 17.4375 18C17.5809 18 17.725 17.9454 17.8347 17.8357C18.0546 17.6164 18.0552 17.2603 17.8358 17.0404L11.9045 11.0953C14.125 8.44369 13.9956 4.473 11.5078 1.98C10.2341 0.703125 8.54075 0 6.73935 0C4.93796 0 3.24457 0.703125 1.97088 1.98C-0.656959 4.61419 -0.656959 8.901 1.97088 11.5352C3.24514 12.8115 4.93852 13.5146 6.73992 13.5146ZM2.76806 2.77425C3.8291 1.71056 5.2395 1.125 6.73992 1.125C8.24033 1.125 9.65074 1.71056 10.7118 2.77425C12.903 4.97081 12.903 8.54437 10.7118 10.7409C9.65074 11.8046 8.24033 12.3902 6.73992 12.3902C5.2395 12.3902 3.8291 11.8046 2.76806 10.7409C0.577354 8.54437 0.577354 4.97081 2.76806 2.77425Z" fill="#231F20" fill-opacity="0.7"/>
</svg>
